<?xml version="1.0" encoding="UTF-8"?>
<svg id="Layer_1" xmlns="http://www.w3.org/2000/svg" version="1.1" viewBox="0 0 400 400">
  <!-- Generator: Adobe Illustrator 29.0.0, SVG Export Plug-In . SVG Version: 2.1.0 Build 186)  -->
  <defs>
    <style>
      .st0 {
        fill: #b82125;
      }
    </style>
  </defs>
  <g id="UT2qVR.tif">
    <path class="st0" d="M364.6,184.4v26.9l-4.7,26.5c-13.8,56.8-57.8,102.2-113.7,118.8l-32.1,6.5c-8.8-.5-18.2.7-26.9,0C49.9,352.6-14.5,184.6,80.6,84.7c97-102,272.7-40.2,284,99.7ZM329.1,125.7c-40-74.8-141.7-99.2-211.7-50.7,11.6-.7,23.1-2.9,34.9-1.8,38.6,3.5,67.8,43.9,106.8,51.1,7.6,1.4,6.2-6.1,13.9-10,14.9-7.4,27,0,33.7,13.8l22.5-2.3ZM261.5,138.3c-1-.8-21.3-6.1-25.7-7.9-47-19.2-68.2-62.2-126.9-37-7.1,3-22.9,11.9-28.2,17s-26.5,44.1-23.2,48.4c10-4.6,20.6-8.6,31.7-9.9,3.2-37.5,55.1-43.3,64-6.1,37.8,2.3,69,24.2,104.6,34.3,29.3,8.4,60.8,12.2,91.1,14.8-1.5-18.3-4.8-36.9-13.4-53.2l-29.9,3c-6.8,16.2-29.3,20.5-39.8,5.4-1.4-2-3.2-7.9-4.2-8.7ZM281,122.3c-12.1,2.7-12.4,22.7,2.2,23.1s15.2-27-2.2-23.1ZM117,128.5c-23,3.9-22.8,41.7,3.8,43,31.5,1.6,29.4-48.6-3.8-43ZM264.2,191.8c-28.7-4.2-54-21.3-81-29.7-5.2-1.6-22.8-6.4-27.3-5.8s-5.3,9.2-7.4,12.2c-11.7,16.8-38.2,18.7-51.4,2.6s-3.2-7-6.2-9.6c-7.4,1.8-36,9.5-38.2,16.6-.7,2.1-1.3,9.2-1.5,11.9-1.5,21,3.2,43.1,10.1,62.8,47.8,13.3,91.4-6.3,133.2-27.3,18-9,34.6-19.9,53.5-27.2,5.2-2,12.4-2.8,16.2-6.4ZM348.7,207.7c-21-4.4-42.7-7.3-64.1-4.7-52.7,6.2-96.4,48.7-147.9,61.3l-25.4,5.8c29.1,7.9,57.3,2.3,85.1-7.3,49.9-17.3,95-53.9,151.1-44.1l1.2-11ZM341.9,230.9c-7.1-1.1-19.2,0-26.9,0-26.6,0-76.1,29.7-103.1,40.1-19.3,7.4-42.6,14.9-63.4,16.2-26,1.6-52-7.4-76.5-14.7-1.7,1.6,16.1,25.2,18.9,26.9,10.8,6.5,50-1.1,63.3-4.1,33.2-7.4,48.4-15.5,84.9-14.4,3,0,6.9,2,9.5,1.1s5.8-7.4,9-9.4c14.9-9.5,34.1-1.7,37.3,15.6,19.5.6,26.9-2.8,36-19.4,6.3-11.6,10.2-24.2,14.1-36.7-1.3.4-2.4-1.1-3.1-1.2ZM271.2,279c-20.9.4-15.3,33.6,4.7,26.6,15.5-5.4,9.1-26.8-4.7-26.6ZM246.8,296c-3.4-3-32.2-2.2-38.1-1.4-16.1,2.2-32.3,9.2-48.3,12.9-17,3.9-34.4,5.7-51.6,8.3,58.8,46.4,147.1,40,198.3-14.7l-12.7.8c-9.2,18.2-33.6,20.7-44.3,2.3s-2.3-7.5-3.3-8.3Z"/>
  </g>
</svg>